<svg width="19" height="18" viewBox="0 0 19 18" fill="none" xmlns="http://www.w3.org/2000/svg">
<path fill-rule="evenodd" clip-rule="evenodd" d="M12.9665 6.73295C12.9665 7.56051 12.6058 8.35419 11.9637 8.93936C11.3216 9.52454 10.4508 9.85329 9.5428 9.85329C8.63479 9.85329 7.76397 9.52454 7.12191 8.93936C6.47985 8.35419 6.11914 7.56051 6.11914 6.73295C6.11914 5.90538 6.47985 5.11171 7.12191 4.52654C7.76397 3.94136 8.63479 3.61261 9.5428 3.61261C10.4508 3.61261 11.3216 3.94136 11.9637 4.52654C12.6058 5.11171 12.9665 5.90538 12.9665 6.73295ZM11.2546 6.73295C11.2546 7.14673 11.0743 7.54357 10.7533 7.83616C10.4322 8.12874 9.99681 8.29312 9.5428 8.29312C9.0888 8.29312 8.65339 8.12874 8.33236 7.83616C8.01133 7.54357 7.83097 7.14673 7.83097 6.73295C7.83097 6.31917 8.01133 5.92233 8.33236 5.62974C8.65339 5.33715 9.0888 5.17278 9.5428 5.17278C9.99681 5.17278 10.4322 5.33715 10.7533 5.62974C11.0743 5.92233 11.2546 6.31917 11.2546 6.73295Z" fill="black"/>
<path fill-rule="evenodd" clip-rule="evenodd" d="M9.54202 0.492249C4.34234 0.492249 0.126953 4.33417 0.126953 9.07318C0.126953 13.8122 4.34234 17.6541 9.54202 17.6541C14.7417 17.6541 18.9571 13.8122 18.9571 9.07318C18.9571 4.33417 14.7417 0.492249 9.54202 0.492249ZM1.83878 9.07318C1.83878 10.7036 2.44905 12.2044 3.47187 13.3964C4.19018 12.5367 5.11686 11.8399 6.1795 11.3606C7.24215 10.8813 8.412 10.6324 9.59766 10.6334C10.768 10.6323 11.9231 10.8748 12.975 11.3423C14.027 11.8097 14.948 12.4899 15.6678 13.3309C16.4094 12.4444 16.9088 11.4097 17.1245 10.3124C17.3402 9.21513 17.2662 8.08679 16.9085 7.02077C16.5507 5.95474 15.9196 4.98167 15.0674 4.18208C14.2151 3.38248 13.1662 2.77935 12.0074 2.42258C10.8486 2.0658 9.61324 1.96565 8.40354 2.13041C7.19384 2.29516 6.04457 2.72009 5.05084 3.37002C4.0571 4.01996 3.24746 4.87622 2.6889 5.86797C2.13035 6.85971 1.83894 7.95842 1.83878 9.07318ZM9.54202 16.0939C7.77366 16.0964 6.05868 15.5419 4.68727 14.5244C5.23928 13.8042 5.974 13.2161 6.82894 12.8103C7.68387 12.4045 8.63372 12.1929 9.59766 12.1935C10.5496 12.1928 11.4879 12.3991 12.3348 12.7953C13.1817 13.1915 13.9126 13.7661 14.467 14.4714C13.0849 15.5219 11.3417 16.0962 9.54202 16.0939Z" fill="black"/>
</svg>
