<svg width="23" height="22" viewBox="0 0 23 22" fill="none" xmlns="http://www.w3.org/2000/svg">
<path d="M13.5992 16.25H3.31292L3.31086 6.34456L11.1518 11.5394C11.2664 11.6154 11.4026 11.656 11.542 11.656C11.6814 11.656 11.8175 11.6154 11.9322 11.5394L19.771 6.34719V12.3125H21.1426V5.75C21.142 5.40206 20.9973 5.06853 20.7402 4.8225C20.4832 4.57647 20.1346 4.43802 19.771 4.4375H3.31292C2.94928 4.43785 2.60064 4.57624 2.34351 4.82231C2.08638 5.06837 1.94177 5.40201 1.94141 5.75V16.25C1.94195 16.5979 2.08662 16.9315 2.34371 17.1775C2.6008 17.4235 2.94934 17.562 3.31292 17.5625H13.5992V16.25ZM18.2617 5.75L11.542 10.202L4.82226 5.75H18.2617Z" fill="#404040"/>
<path d="M18.4002 18.875C19.9152 18.875 21.1433 17.6997 21.1433 16.25C21.1433 14.8003 19.9152 13.625 18.4002 13.625C16.8853 13.625 15.6572 14.8003 15.6572 16.25C15.6572 17.6997 16.8853 18.875 18.4002 18.875Z" fill="#404040"/>
</svg>
