<svg width="68" height="68" viewBox="0 0 68 68" fill="none" xmlns="http://www.w3.org/2000/svg">
<path d="M33.9999 67.9999C52.7776 67.9999 67.9999 52.7776 67.9999 33.9999C67.9999 15.2223 52.7776 0 33.9999 0C15.2223 0 0 15.2223 0 33.9999C0 52.7776 15.2223 67.9999 33.9999 67.9999Z" fill="#333333"/>
<path d="M18.1554 0.0184583C8.34728 0.228436 0.319512 8.16947 0.00952588 17.9748C-0.144538 22.8461 1.57938 27.3128 4.5115 30.7061C5.83206 32.2343 6.20898 34.3637 5.52964 36.2656L4.30856 39.6846C3.91145 40.7966 5.19934 41.7472 6.14497 41.0399L10.4759 37.8009C11.7646 36.8371 13.401 36.4786 14.9798 36.7897C16.6239 37.1136 18.3455 37.2206 20.116 37.0743C29.4311 36.3034 36.7774 28.5997 37.1121 19.2586C37.4958 8.55981 28.8207 -0.209848 18.1554 0.0184583Z" fill="#FF525D"/>
<path d="M60.4052 47.7834C58.8343 49.6791 58.3361 52.2409 59.1631 54.5585L59.7502 56.203C59.0091 57.062 58.2251 57.8836 57.402 58.6648L53.755 55.9407C52.2159 54.793 50.2704 54.3379 48.383 54.6889C47.1659 54.9166 45.8031 55.1178 44.8136 55.1178C33.6352 55.1178 24.5746 46.0571 24.5746 34.8788C24.5733 23.7115 33.6449 14.6397 44.8136 14.6397C55.9906 14.6397 65.0526 23.7004 65.0526 34.8788C65.0529 39.783 63.3071 44.2807 60.4052 47.7834Z" fill="#F2994A"/>
<path d="M47.6709 46.0744C47.6709 47.6057 46.3636 48.9503 44.8322 48.9503C43.1887 48.9503 41.9562 47.6057 41.9562 46.0744C41.9562 44.5055 43.1888 43.1983 44.8322 43.1983C46.3637 43.1983 47.6709 44.5056 47.6709 46.0744ZM46.9612 38.9776C46.9612 40.1356 45.6912 40.6212 44.7948 40.6212C43.5995 40.6212 42.5912 40.1356 42.5912 38.9776C42.5912 34.5329 42.0684 28.1459 42.0684 23.7009C42.0684 22.2442 43.2637 21.4225 44.7949 21.4225C46.2518 21.4225 47.4843 22.2441 47.4843 23.7009C47.484 28.1458 46.9612 34.5328 46.9612 38.9776Z" fill="#F9EED7"/>
<path d="M21.7482 17.8522C19.8643 19.3251 19.8297 20.353 19.8297 22.1343C19.8297 22.7853 19.4872 23.5386 17.8086 23.5386C16.4042 23.5386 15.9246 23.0249 15.9246 21.2435C15.9246 18.2974 17.2265 16.8929 18.2198 16.0365C19.3503 15.0774 21.2686 14.0154 21.2686 12.1656C21.2686 10.5899 19.8984 9.83603 18.1855 9.83603C14.6915 9.83603 15.4449 12.4738 13.5952 12.4738C12.6703 12.4738 11.5398 11.8573 11.5398 10.5211C11.5398 8.67139 13.6637 5.93079 18.2884 5.93079C22.6733 5.93079 25.5849 8.363 25.5849 11.5831C25.5849 14.8031 22.6733 17.1328 21.7482 17.8522ZM20.4808 28.5403C20.4808 29.9446 19.3159 31.1779 17.843 31.1779C16.3701 31.1779 15.2394 29.9446 15.2394 28.5403C15.2394 27.1015 16.4043 25.9025 17.843 25.9025C19.2816 25.9025 20.4808 27.1015 20.4808 28.5403Z" fill="#F9EED7"/>
</svg>
