<svg width="14" height="20" viewBox="0 0 14 20" fill="none" xmlns="http://www.w3.org/2000/svg">
<path d="M7 0C3.1833 0 0 3.07448 0 7C0 8.49342 0.448764 9.82512 1.31002 11.073L6.46431 19.1158C6.71436 19.5068 7.28615 19.506 7.53569 19.1158L12.7123 11.0456C13.5551 9.8543 14 8.45545 14 7C14 3.1402 10.8598 0 7 0ZM7 10.1818C5.24563 10.1818 3.81818 8.75437 3.81818 7C3.81818 5.24563 5.24563 3.81818 7 3.81818C8.75437 3.81818 10.1818 5.24563 10.1818 7C10.1818 8.75437 8.75437 10.1818 7 10.1818Z" fill="#F2994A"/>
</svg>
