<svg width="373" height="60" viewBox="0 0 373 60" fill="none" xmlns="http://www.w3.org/2000/svg">
<path d="M15.168 47.672C12.448 47.672 9.808 47.336 7.248 46.664C4.688 45.992 2.608 45.096 1.008 43.976L4.128 36.968C5.632 37.96 7.376 38.76 9.36 39.368C11.344 39.976 13.296 40.28 15.216 40.28C18.864 40.28 20.688 39.368 20.688 37.544C20.688 36.584 20.16 35.88 19.104 35.432C18.08 34.952 16.416 34.456 14.112 33.944C11.584 33.4 9.472 32.824 7.776 32.216C6.08 31.576 4.624 30.568 3.408 29.192C2.192 27.816 1.584 25.96 1.584 23.624C1.584 21.576 2.144 19.736 3.264 18.104C4.384 16.44 6.048 15.128 8.256 14.168C10.496 13.208 13.232 12.728 16.464 12.728C18.672 12.728 20.848 12.984 22.992 13.496C25.136 13.976 27.024 14.696 28.656 15.656L25.728 22.712C22.528 20.984 19.424 20.12 16.416 20.12C14.528 20.12 13.152 20.408 12.288 20.984C11.424 21.528 10.992 22.248 10.992 23.144C10.992 24.04 11.504 24.712 12.528 25.16C13.552 25.608 15.2 26.072 17.472 26.552C20.032 27.096 22.144 27.688 23.808 28.328C25.504 28.936 26.96 29.928 28.176 31.304C29.424 32.648 30.048 34.488 30.048 36.824C30.048 38.84 29.488 40.664 28.368 42.296C27.248 43.928 25.568 45.24 23.328 46.232C21.088 47.192 18.368 47.672 15.168 47.672ZM64.7741 47L64.6781 29.192L56.0381 43.688H51.8141L43.2221 29.672V47H34.4381V13.4H42.2621L54.0701 32.792L65.5901 13.4H73.4141L73.5101 47H64.7741ZM102.747 40.472H88.539L85.899 47H76.203L91.035 13.4H100.395L115.275 47H105.387L102.747 40.472ZM99.963 33.464L95.643 22.712L91.323 33.464H99.963ZM132.657 38.072H127.473V47H117.969V13.4H133.329C136.369 13.4 139.009 13.912 141.249 14.936C143.489 15.928 145.217 17.368 146.433 19.256C147.649 21.112 148.257 23.304 148.257 25.832C148.257 28.264 147.681 30.392 146.529 32.216C145.409 34.008 143.793 35.416 141.681 36.44L148.929 47H138.753L132.657 38.072ZM138.657 25.832C138.657 24.264 138.161 23.048 137.169 22.184C136.177 21.32 134.705 20.888 132.753 20.888H127.473V30.728H132.753C134.705 30.728 136.177 30.312 137.169 29.48C138.161 28.616 138.657 27.4 138.657 25.832ZM160.184 20.936H149.864V13.4H179.96V20.936H169.688V47H160.184V20.936Z" fill="url(#paint0_linear)"/>
<path d="M208.515 47L203.79 40.175H203.51H198.575V47H192.905V22.5H203.51C205.68 22.5 207.558 22.8617 209.145 23.585C210.755 24.3083 211.992 25.335 212.855 26.665C213.718 27.995 214.15 29.57 214.15 31.39C214.15 33.21 213.707 34.785 212.82 36.115C211.957 37.4217 210.72 38.425 209.11 39.125L214.605 47H208.515ZM208.41 31.39C208.41 30.0133 207.967 28.9633 207.08 28.24C206.193 27.4933 204.898 27.12 203.195 27.12H198.575V35.66H203.195C204.898 35.66 206.193 35.2867 207.08 34.54C207.967 33.7933 208.41 32.7433 208.41 31.39ZM237.612 42.45V47H218.642V22.5H237.157V27.05H224.277V32.37H235.652V36.78H224.277V42.45H237.612ZM264.594 22.5V47H259.939L247.724 32.125V47H242.124V22.5H246.814L258.994 37.375V22.5H264.594ZM275.465 27.12H267.625V22.5H288.975V27.12H281.135V47H275.465V27.12ZM303.409 47.42C300.913 47.42 298.649 46.8833 296.619 45.81C294.613 44.7133 293.026 43.2083 291.859 41.295C290.716 39.3583 290.144 37.1767 290.144 34.75C290.144 32.3233 290.716 30.1533 291.859 28.24C293.026 26.3033 294.613 24.7983 296.619 23.725C298.649 22.6283 300.924 22.08 303.444 22.08C305.568 22.08 307.481 22.4533 309.184 23.2C310.911 23.9467 312.358 25.02 313.524 26.42L309.884 29.78C308.228 27.8667 306.174 26.91 303.724 26.91C302.208 26.91 300.854 27.2483 299.664 27.925C298.474 28.5783 297.541 29.5 296.864 30.69C296.211 31.88 295.884 33.2333 295.884 34.75C295.884 36.2667 296.211 37.62 296.864 38.81C297.541 40 298.474 40.9333 299.664 41.61C300.854 42.2633 302.208 42.59 303.724 42.59C306.174 42.59 308.228 41.6217 309.884 39.685L313.524 43.045C312.358 44.4683 310.911 45.5533 309.184 46.3C307.458 47.0467 305.533 47.42 303.409 47.42ZM333.01 41.75H321.635L319.465 47H313.655L324.575 22.5H330.175L341.13 47H335.18L333.01 41.75ZM331.225 37.445L327.34 28.065L323.455 37.445H331.225ZM359.282 47L354.557 40.175H354.277H349.342V47H343.672V22.5H354.277C356.447 22.5 358.325 22.8617 359.912 23.585C361.522 24.3083 362.758 25.335 363.622 26.665C364.485 27.995 364.917 29.57 364.917 31.39C364.917 33.21 364.473 34.785 363.587 36.115C362.723 37.4217 361.487 38.425 359.877 39.125L365.372 47H359.282ZM359.177 31.39C359.177 30.0133 358.733 28.9633 357.847 28.24C356.96 27.4933 355.665 27.12 353.962 27.12H349.342V35.66H353.962C355.665 35.66 356.96 35.2867 357.847 34.54C358.733 33.7933 359.177 32.7433 359.177 31.39Z" fill="black"/>
<defs>
<linearGradient id="paint0_linear" x1="0" y1="0" x2="181.5" y2="69.5" gradientUnits="userSpaceOnUse">
<stop stop-color="#2D9CDB"/>
<stop offset="1" stop-color="#0152B4"/>
</linearGradient>
</defs>
</svg>
