<svg width="22" height="19" viewBox="0 0 22 19" fill="none" xmlns="http://www.w3.org/2000/svg">
<path d="M17.7605 17.2188H17.6497C4.84838 16.5478 3.03079 6.70344 2.77671 3.69906C2.75624 3.46547 2.78654 3.23049 2.86588 3.00759C2.94522 2.78469 3.07204 2.57824 3.23907 2.40009C3.4061 2.22193 3.61006 2.07556 3.83926 1.96937C4.06847 1.86318 4.31841 1.79925 4.57476 1.78125H8.16435C8.4253 1.78102 8.68031 1.85221 8.89636 1.9856C9.1124 2.11898 9.27953 2.30842 9.37608 2.52938L10.3663 4.75C10.4617 4.96586 10.4853 5.20248 10.4344 5.43049C10.3834 5.6585 10.2601 5.86784 10.0797 6.0325L8.69204 7.30906C8.90879 8.43169 9.49867 9.46655 10.3819 10.2736C11.2651 11.0807 12.399 11.6211 13.6302 11.8216L15.0438 10.545C15.2272 10.3824 15.4591 10.2726 15.7105 10.2293C15.9619 10.186 16.2217 10.2112 16.4575 10.3016L18.9136 11.1981C19.1523 11.2889 19.3561 11.4424 19.4988 11.6391C19.6415 11.8358 19.7167 12.0667 19.7149 12.3025V15.4375C19.7149 15.9099 19.509 16.363 19.1424 16.697C18.7759 17.0311 18.2788 17.2188 17.7605 17.2188ZM4.73112 2.96875C4.55834 2.96875 4.39263 3.03131 4.27046 3.14266C4.14828 3.25401 4.07965 3.40503 4.07965 3.5625V3.61C4.37932 7.125 6.30115 15.4375 17.7214 16.0312C17.807 16.0361 17.8928 16.0254 17.9738 16C18.0549 15.9745 18.1296 15.9347 18.1938 15.8829C18.258 15.831 18.3103 15.7681 18.3477 15.6978C18.3851 15.6275 18.4069 15.5511 18.4119 15.4731V12.3025L15.9559 11.4059L14.0862 13.0981L13.7735 13.0625C8.10572 12.4153 7.33699 7.24969 7.33699 7.19625L7.2979 6.91125L9.14806 5.20719L8.17086 2.96875H4.73112Z" fill="#404040"/>
</svg>
