<svg width="40" height="40" viewBox="0 0 40 40" fill="none" xmlns="http://www.w3.org/2000/svg">
<path d="M20 40C31.0457 40 40 31.0457 40 20C40 8.9543 31.0457 0 20 0C8.9543 0 0 8.9543 0 20C0 31.0457 8.9543 40 20 40Z" fill="#F0F0F0"/>
<path d="M38.756 26.9565C39.56 24.7898 40 22.4464 40 20C40 17.5536 39.56 15.2101 38.756 13.0435H1.24398C0.440078 15.2101 0 17.5536 0 20C0 22.4464 0.440078 24.7898 1.24398 26.9565L20 28.6956L38.756 26.9565Z" fill="#0052B4"/>
<path d="M19.9999 40C28.5992 40 35.9301 34.5725 38.7559 26.9565H1.2439C4.06976 34.5725 11.4006 40 19.9999 40Z" fill="#D80027"/>
</svg>
