<svg width="18" height="17" viewBox="0 0 18 17" fill="none" xmlns="http://www.w3.org/2000/svg">
<path d="M8.86328 1.68402C4.75605 1.68402 1.42578 4.8184 1.42578 8.68402C1.42578 12.5496 4.75605 15.684 8.86328 15.684C12.9705 15.684 16.3008 12.5496 16.3008 8.68402C16.3008 4.8184 12.9705 1.68402 8.86328 1.68402ZM12.0757 6.39808L8.57939 10.9606C8.53053 11.0248 8.46611 11.0771 8.39148 11.1132C8.31684 11.1493 8.23415 11.1681 8.15024 11.1681C8.06634 11.1681 7.98364 11.1493 7.90901 11.1132C7.83438 11.0771 7.76996 11.0248 7.72109 10.9606L5.65088 8.26058C5.58779 8.17777 5.65088 8.06215 5.75879 8.06215H6.5374C6.70674 8.06215 6.86777 8.13871 6.96738 8.26996L8.14941 9.81371L10.7592 6.40746C10.8588 6.27777 11.0182 6.19965 11.1892 6.19965H11.9678C12.0757 6.19965 12.1388 6.31527 12.0757 6.39808Z" fill="#27AE60"/>
</svg>
