<svg width="21" height="22" viewBox="0 0 21 22" fill="none" xmlns="http://www.w3.org/2000/svg">
<path d="M12.3765 16.1328H3.00146L2.99959 6.22738L10.1458 11.4223C10.2503 11.4982 10.3744 11.5388 10.5015 11.5388C10.6285 11.5388 10.7526 11.4982 10.8571 11.4223L18.0015 6.23V12.1953H19.2515V5.63281C19.251 5.28488 19.1191 4.95134 18.8848 4.70531C18.6505 4.45928 18.3328 4.32083 18.0015 4.32031H3.00146C2.67005 4.32066 2.3523 4.45905 2.11795 4.70512C1.8836 4.95118 1.7518 5.28482 1.75146 5.63281V16.1328C1.75196 16.4807 1.88382 16.8143 2.11813 17.0603C2.35244 17.3063 2.6701 17.4448 3.00146 17.4453H12.3765V16.1328ZM16.6258 5.63281L10.5015 10.0848L4.37709 5.63281H16.6258Z" fill="#404040"/>
<path d="M16.7515 18.7578C18.1322 18.7578 19.2515 17.5826 19.2515 16.1328C19.2515 14.6831 18.1322 13.5078 16.7515 13.5078C15.3708 13.5078 14.2515 14.6831 14.2515 16.1328C14.2515 17.5826 15.3708 18.7578 16.7515 18.7578Z" fill="#404040"/>
</svg>
