<svg width="29" height="28" viewBox="0 0 29 28" fill="none" xmlns="http://www.w3.org/2000/svg">
<g clip-path="url(#clip0)">
<path fill-rule="evenodd" clip-rule="evenodd" d="M27.8169 9.00549C27.8984 9.08677 27.963 9.18333 28.0071 9.28963C28.0513 9.39594 28.074 9.5099 28.074 9.62499C28.074 9.74008 28.0513 9.85405 28.0071 9.96035C27.963 10.0667 27.8984 10.1632 27.8169 10.2445L22.5669 15.4945C22.4856 15.576 22.3891 15.6406 22.2828 15.6847C22.1764 15.7288 22.0625 15.7516 21.9474 15.7516C21.8323 15.7516 21.7183 15.7288 21.612 15.6847C21.5057 15.6406 21.4092 15.576 21.3279 15.4945L18.7029 12.8695C18.5386 12.7052 18.4463 12.4823 18.4463 12.25C18.4463 12.0176 18.5386 11.7948 18.7029 11.6305C18.8672 11.4662 19.09 11.3739 19.3224 11.3739C19.5548 11.3739 19.7776 11.4662 19.9419 11.6305L21.9474 13.6377L26.5779 9.00549C26.6592 8.92401 26.7557 8.85936 26.862 8.81524C26.9683 8.77113 27.0823 8.74843 27.1974 8.74843C27.3125 8.74843 27.4264 8.77113 27.5328 8.81524C27.6391 8.85936 27.7356 8.92401 27.8169 9.00549Z" fill="#1471C5"/>
<path d="M1.82227 24.5C1.82227 24.5 0.0722656 24.5 0.0722656 22.75C0.0722656 21 1.82227 15.75 10.5723 15.75C19.3223 15.75 21.0723 21 21.0723 22.75C21.0723 24.5 19.3223 24.5 19.3223 24.5H1.82227ZM10.5723 14C11.9647 14 13.3 13.4469 14.2846 12.4623C15.2691 11.4777 15.8223 10.1424 15.8223 8.75C15.8223 7.35761 15.2691 6.02226 14.2846 5.03769C13.3 4.05312 11.9647 3.5 10.5723 3.5C9.17988 3.5 7.84452 4.05312 6.85996 5.03769C5.87539 6.02226 5.32227 7.35761 5.32227 8.75C5.32227 10.1424 5.87539 11.4777 6.85996 12.4623C7.84452 13.4469 9.17988 14 10.5723 14Z" fill="#1471C5"/>
</g>
<defs>
<clipPath id="clip0">
<rect width="28" height="28" fill="white" transform="translate(0.0722656)"/>
</clipPath>
</defs>
</svg>
