<svg width="34" height="33" viewBox="0 0 34 33" fill="none" xmlns="http://www.w3.org/2000/svg">
<path d="M17 2.75C9.41825 2.75 3.25 8.91825 3.25 16.5C3.25 24.0818 9.41825 30.25 17 30.25C24.5818 30.25 30.75 24.0818 30.75 16.5C30.75 8.91825 24.5818 2.75 17 2.75ZM17 27.5C10.9349 27.5 6 22.5651 6 16.5C6 10.4349 10.9349 5.5 17 5.5C23.0651 5.5 28 10.4349 28 16.5C28 22.5651 23.0651 27.5 17 27.5Z" fill="#1471C5"/>
<path d="M18.375 9.625H15.625V17.0692L20.1529 21.5971L22.0971 19.6529L18.375 15.9307V9.625Z" fill="#1471C5"/>
</svg>
