<svg width="28" height="29" viewBox="0 0 28 29" fill="none" xmlns="http://www.w3.org/2000/svg">
<path d="M24.2869 28.08H3.71439C2.76792 28.08 1.95984 27.7452 1.29016 27.0755C0.620483 26.4058 0.285645 25.5977 0.285645 24.6513V4.07877C0.285645 3.1323 0.620483 2.32422 1.29016 1.65454C1.95984 0.984863 2.76792 0.650024 3.71439 0.650024H24.2869C25.2334 0.650024 26.0414 0.984863 26.7111 1.65454C27.3808 2.32422 27.7156 3.1323 27.7156 4.07877V24.6513C27.7156 25.5977 27.3808 26.4058 26.7111 27.0755C26.0414 27.7452 25.2334 28.08 24.2869 28.08ZM24.2869 7.50752C24.2869 6.56104 23.952 5.75297 23.2824 5.08329C22.6127 4.41361 21.8046 4.07877 20.8581 4.07877H7.14314C6.19667 4.07877 5.38859 4.41361 4.71891 5.08329C4.04923 5.75297 3.71439 6.56104 3.71439 7.50752V21.2225C3.71439 22.169 4.04923 22.9771 4.71891 23.6468C5.38859 24.3164 6.19667 24.6513 7.14314 24.6513H20.8581C21.8046 24.6513 22.6127 24.3164 23.2824 23.6468C23.952 22.9771 24.2869 22.169 24.2869 21.2225V7.50752ZM21.3135 16.0258L19.7063 14.4186L14.6703 19.4546C14.5632 19.651 14.465 19.7939 14.3757 19.8832C14.0542 20.2046 13.6658 20.3653 13.2104 20.3653C12.755 20.3653 12.3666 20.2046 12.0452 19.8832L10.5719 18.4099L8.21463 20.7404C7.89318 21.0618 7.50477 21.2225 7.04939 21.2225C6.59401 21.2225 6.20559 21.0618 5.88415 20.7404C5.5627 20.4189 5.40198 20.0305 5.40198 19.5751C5.40198 19.1197 5.5627 18.7313 5.88415 18.4099L9.15217 15.1418C9.27718 14.9633 9.33969 14.865 9.33969 14.8472C9.66113 14.5257 10.0495 14.365 10.5049 14.365C10.9603 14.365 11.3487 14.5257 11.6702 14.8472L13.1167 16.3205L17.349 12.0881L15.715 10.4541V10.2934C15.715 10.0434 15.7195 9.85586 15.7284 9.73085C15.7373 9.60585 15.7909 9.48977 15.8891 9.38262C15.9874 9.27547 16.1347 9.2219 16.3311 9.2219H21.3135C21.6707 9.2219 21.9698 9.34244 22.2109 9.58352C22.452 9.82461 22.5725 10.1148 22.5725 10.4541V15.4097C22.5725 15.6062 22.5189 15.7535 22.4118 15.8517C22.3046 15.9499 22.1886 16.0035 22.0636 16.0124C21.9386 16.0214 21.751 16.0258 21.501 16.0258H21.3135Z" fill="#1471C5"/>
</svg>
