<svg width="32" height="35" viewBox="0 0 32 35" fill="none" xmlns="http://www.w3.org/2000/svg">
<path d="M28.1913 8.76373L20.4413 4.51373C20.2619 4.41524 20.064 4.36397 19.8633 4.36397C19.6626 4.36397 19.4647 4.41524 19.2853 4.51373L12.1139 8.44782L4.94131 4.51373C4.74433 4.40578 4.52547 4.35485 4.30549 4.36577C4.08552 4.3767 3.87175 4.44912 3.68448 4.57616C3.4972 4.7032 3.34266 4.88064 3.23551 5.09163C3.12836 5.30261 3.07216 5.54014 3.07227 5.78165V24.1983C3.07227 24.7352 3.34868 25.2254 3.78656 25.4662L11.5366 29.7162C11.716 29.8147 11.9139 29.866 12.1146 29.866C12.3152 29.866 12.5131 29.8147 12.6926 29.7162L19.8639 25.7821L27.0366 29.7148C27.233 29.8238 27.4517 29.8754 27.6716 29.8648C27.8915 29.8541 28.1052 29.7815 28.2921 29.6539C28.6731 29.3946 28.9056 28.9399 28.9056 28.4483V10.0316C28.9056 9.49473 28.6292 9.00457 28.1913 8.76373ZM13.4056 10.9071L18.5723 8.07382V23.3228L13.4056 26.1561V10.9071ZM5.6556 8.07382L10.8223 10.9071V26.1561L5.6556 23.3228V8.07382ZM26.3223 26.1561L21.1556 23.3228V8.07382L26.3223 10.9071V26.1561Z" fill="#1471C5"/>
</svg>
