<svg width="12" height="12" viewBox="0 0 12 12" fill="none" xmlns="http://www.w3.org/2000/svg">
<path d="M8.97932 1.97818C8.7934 1.97863 8.6094 2.01592 8.43795 2.08791C8.2665 2.15989 8.11099 2.26515 7.98038 2.39759L2.54466 7.8379L2.52335 7.94559L2.14729 9.83793L2.04004 10.343L2.54501 10.2357L4.43563 9.85926L4.54288 9.83758L9.9786 4.39728C10.1113 4.26678 10.2167 4.11115 10.2886 3.93945C10.3605 3.76776 10.3976 3.58344 10.3976 3.39726C10.3976 3.21108 10.3605 3.02677 10.2886 2.85507C10.2167 2.68338 10.1113 2.52774 9.9786 2.39725C9.84793 2.26482 9.69235 2.15961 9.52083 2.08768C9.34932 2.01576 9.16528 1.97854 8.97932 1.97818ZM8.97932 2.63396C9.15257 2.63396 9.3272 2.7131 9.49495 2.88134C9.82941 3.21577 9.82941 3.57876 9.49495 3.91353L9.24813 4.1499L8.2272 3.12838L8.4637 2.88134C8.63179 2.7131 8.80607 2.63396 8.97932 2.63396ZM7.74423 3.61247L8.76448 4.63399L4.60751 8.79439C4.38309 8.35491 4.02581 7.99754 3.58657 7.77321L7.74423 3.61247ZM3.14657 8.33266C3.35002 8.41458 3.53482 8.53681 3.68988 8.69202C3.84494 8.84722 3.96707 9.03219 4.04891 9.23582L2.92073 9.46152L3.14657 8.33266Z" fill="#1471C5"/>
</svg>
