<svg width="20" height="20" viewBox="0 0 20 20" fill="none" xmlns="http://www.w3.org/2000/svg">
<path d="M15.552 17.3269H15.4511C3.78392 16.656 2.12735 6.81159 1.89579 3.80722C1.87713 3.57362 1.90475 3.33864 1.97706 3.11574C2.04937 2.89284 2.16495 2.6864 2.31719 2.50824C2.46942 2.33009 2.65531 2.18372 2.8642 2.07753C3.0731 1.97134 3.3009 1.90741 3.53454 1.8894H6.8061C7.04394 1.88917 7.27636 1.96036 7.47326 2.09375C7.67017 2.22714 7.82248 2.41658 7.91048 2.63753L8.81298 4.85815C8.89987 5.07401 8.92144 5.31064 8.87499 5.53865C8.82855 5.76665 8.71614 5.97599 8.55173 6.14065L7.28704 7.41722C7.48459 8.53985 8.02221 9.57471 8.82717 10.3818C9.63212 11.1889 10.6656 11.7292 11.7877 11.9297L13.0761 10.6532C13.2432 10.4906 13.4546 10.3808 13.6837 10.3375C13.9128 10.2942 14.1496 10.3193 14.3645 10.4097L16.603 11.3063C16.8206 11.3971 17.0063 11.5506 17.1363 11.7472C17.2664 11.9439 17.335 12.1749 17.3333 12.4107V15.5457C17.3333 16.0181 17.1456 16.4711 16.8116 16.8052C16.4775 17.1392 16.0245 17.3269 15.552 17.3269ZM3.67704 3.0769C3.51957 3.0769 3.36855 3.13946 3.2572 3.25081C3.14585 3.36216 3.08329 3.51318 3.08329 3.67065V3.71815C3.35642 7.23315 5.10798 15.5457 15.5164 16.1394C15.5944 16.1442 15.6726 16.1336 15.7465 16.1081C15.8204 16.0827 15.8885 16.0429 15.947 15.991C16.0055 15.9392 16.0531 15.8763 16.0872 15.806C16.1214 15.7357 16.1413 15.6593 16.1458 15.5813V12.4107L13.9074 11.5141L12.2033 13.2063L11.9183 13.1707C6.75267 12.5235 6.05204 7.35784 6.05204 7.3044L6.01642 7.0194L7.70267 5.31534L6.81204 3.0769H3.67704Z" fill="#404040"/>
</svg>
