<svg width="46" height="45" viewBox="0 0 46 45" fill="none" xmlns="http://www.w3.org/2000/svg">
<path d="M8.521 7.55902C8.521 5.73566 9.26179 3.98697 10.5804 2.69766C11.899 1.40835 13.6874 0.684021 15.5522 0.684021C17.417 0.684021 19.2055 1.40835 20.5241 2.69766C21.8427 3.98697 22.5835 5.73566 22.5835 7.55902C22.5835 5.73566 23.3243 3.98697 24.6429 2.69766C25.9615 1.40835 27.7499 0.684021 29.6147 0.684021C31.4795 0.684021 33.268 1.40835 34.5866 2.69766C35.9052 3.98697 36.646 5.73566 36.646 7.55902V7.57552C36.646 7.76802 36.646 8.31802 36.5391 8.93402H42.271C43.0169 8.93402 43.7323 9.22375 44.2597 9.73948C44.7872 10.2552 45.0835 10.9547 45.0835 11.684V17.184C45.0835 17.9134 44.7872 18.6128 44.2597 19.1286C43.7323 19.6443 43.0169 19.934 42.271 19.934V40.559C42.271 41.653 41.8265 42.7022 41.0354 43.4758C40.2442 44.2494 39.1711 44.684 38.0522 44.684H7.11475C5.99586 44.684 4.92281 44.2494 4.13164 43.4758C3.34047 42.7022 2.896 41.653 2.896 40.559V19.934C2.15007 19.934 1.4347 19.6443 0.907258 19.1286C0.379812 18.6128 0.0834961 17.9134 0.0834961 17.184V11.684C0.0834961 10.9547 0.379812 10.2552 0.907258 9.73948C1.4347 9.22375 2.15007 8.93402 2.896 8.93402H8.62787C8.55359 8.48489 8.51784 8.03048 8.521 7.57552V7.55902ZM11.5247 8.93402H19.771V7.55902C19.771 7.01732 19.6619 6.48092 19.4499 5.98045C19.2379 5.47998 18.9271 5.02525 18.5354 4.64221C18.1436 4.25916 17.6785 3.95532 17.1667 3.74802C16.6549 3.54072 16.1063 3.43402 15.5522 3.43402C14.9982 3.43402 14.4496 3.54072 13.9378 3.74802C13.426 3.95532 12.9609 4.25916 12.5691 4.64221C12.1774 5.02525 11.8666 5.47998 11.6546 5.98045C11.4426 6.48092 11.3335 7.01732 11.3335 7.55902C11.3335 7.79277 11.3391 8.31252 11.4601 8.74152C11.477 8.8071 11.4986 8.87142 11.5247 8.93402ZM25.396 8.93402H33.6422C33.6681 8.87131 33.6897 8.80701 33.7069 8.74152C33.8279 8.31252 33.8335 7.79277 33.8335 7.55902C33.8335 6.465 33.389 5.41579 32.5979 4.64221C31.8067 3.86862 30.7336 3.43402 29.6147 3.43402C28.4959 3.43402 27.4228 3.86862 26.6316 4.64221C25.8405 5.41579 25.396 6.465 25.396 7.55902V8.93402ZM2.896 11.684V17.184H19.771V11.684H2.896ZM25.396 11.684V17.184H42.271V11.684H25.396ZM39.4585 19.934H25.396V41.934H38.0522C38.4252 41.934 38.7829 41.7892 39.0466 41.5313C39.3103 41.2734 39.4585 40.9237 39.4585 40.559V19.934ZM19.771 41.934V19.934H5.7085V40.559C5.7085 40.9237 5.85665 41.2734 6.12038 41.5313C6.3841 41.7892 6.74179 41.934 7.11475 41.934H19.771Z" fill="#27AE60"/>
</svg>
