<svg width="18" height="18" viewBox="0 0 18 18" fill="none" xmlns="http://www.w3.org/2000/svg">
<path fill-rule="evenodd" clip-rule="evenodd" d="M11.8598 6.57176C11.8598 7.39932 11.5311 8.19299 10.9459 8.77817C10.3607 9.36335 9.56705 9.69209 8.73948 9.69209C7.91191 9.69209 7.11824 9.36335 6.53307 8.77817C5.94789 8.19299 5.61914 7.39932 5.61914 6.57176C5.61914 5.74419 5.94789 4.95052 6.53307 4.36534C7.11824 3.78016 7.91191 3.45142 8.73948 3.45142C9.56705 3.45142 10.3607 3.78016 10.9459 4.36534C11.5311 4.95052 11.8598 5.74419 11.8598 6.57176ZM10.2996 6.57176C10.2996 6.98554 10.1353 7.38237 9.84269 7.67496C9.5501 7.96755 9.15326 8.13192 8.73948 8.13192C8.3257 8.13192 7.92886 7.96755 7.63627 7.67496C7.34369 7.38237 7.17931 6.98554 7.17931 6.57176C7.17931 6.15797 7.34369 5.76114 7.63627 5.46855C7.92886 5.17596 8.3257 5.01159 8.73948 5.01159C9.15326 5.01159 9.5501 5.17596 9.84269 5.46855C10.1353 5.76114 10.2996 6.15797 10.2996 6.57176Z" fill="#404040"/>
<path fill-rule="evenodd" clip-rule="evenodd" d="M8.73962 0.331055C4.00061 0.331055 0.158691 4.17297 0.158691 8.91199C0.158691 13.651 4.00061 17.4929 8.73962 17.4929C13.4786 17.4929 17.3206 13.651 17.3206 8.91199C17.3206 4.17297 13.4786 0.331055 8.73962 0.331055ZM1.71886 8.91199C1.71886 10.5424 2.27506 12.0432 3.20726 13.2352C3.86193 12.3755 4.70651 11.6788 5.67501 11.1994C6.64351 10.7201 7.70971 10.4712 8.79033 10.4722C9.85696 10.4711 10.9098 10.7136 11.8685 11.1811C12.8272 11.6486 13.6666 12.3287 14.3227 13.1697C14.9986 12.2832 15.4537 11.2485 15.6503 10.1512C15.8469 9.05393 15.7794 7.9256 15.4534 6.85957C15.1274 5.79355 14.5522 4.82048 13.7755 4.02088C12.9987 3.22129 12.0427 2.61815 10.9866 2.26138C9.93043 1.90461 8.80453 1.80446 7.702 1.96921C6.59948 2.13397 5.55203 2.55889 4.64634 3.20883C3.74064 3.85877 3.00273 4.71503 2.49366 5.70677C1.98459 6.69851 1.719 7.79722 1.71886 8.91199ZM8.73962 15.9328C7.12793 15.9352 5.56489 15.3807 4.31498 14.3632C4.81808 13.643 5.48771 13.055 6.26691 12.6491C7.0461 12.2433 7.91179 12.0317 8.79033 12.0323C9.65791 12.0316 10.5131 12.2379 11.285 12.6341C12.0568 13.0303 12.723 13.6049 13.2282 14.3102C11.9686 15.3607 10.3798 15.9351 8.73962 15.9328Z" fill="#404040"/>
</svg>
