<svg width="18" height="18" viewBox="0 0 18 18" fill="none" xmlns="http://www.w3.org/2000/svg">
<path fill-rule="evenodd" clip-rule="evenodd" d="M17.1606 1.27173H15.2856V0.0217285H14.0356V1.27173H4.03564V0.0217285H2.78564V1.27173H0.910645L0.285645 1.89673V16.8967L0.910645 17.5217H17.1606L17.7856 16.8967V1.89673L17.1606 1.27173ZM16.5356 16.2717H1.53564V5.02173H16.5356V16.2717ZM16.5356 3.77173H1.53564V2.52173H16.5356V3.77173ZM4.03564 8.77173H2.78564V10.0217H4.03564V8.77173ZM2.78564 11.2717H4.03564V12.5217H2.78564V11.2717ZM4.03564 13.7717H2.78564V15.0217H4.03564V13.7717ZM6.53564 8.77173H7.78564V10.0217H6.53564V8.77173ZM7.78564 11.2717H6.53564V12.5217H7.78564V11.2717ZM6.53564 13.7717H7.78564V15.0217H6.53564V13.7717ZM7.78564 6.27173H6.53564V7.52173H7.78564V6.27173ZM10.2856 8.77173H11.5356V10.0217H10.2856V8.77173ZM11.5356 11.2717H10.2856V12.5217H11.5356V11.2717ZM10.2856 13.7717H11.5356V15.0217H10.2856V13.7717ZM11.5356 6.27173H10.2856V7.52173H11.5356V6.27173ZM14.0356 8.77173H15.2856V10.0217H14.0356V8.77173ZM15.2856 11.2717H14.0356V12.5217H15.2856V11.2717ZM14.0356 6.27173H15.2856V7.52173H14.0356V6.27173Z" fill="black"/>
</svg>
