<svg width="25" height="25" viewBox="0 0 25 25" fill="none" xmlns="http://www.w3.org/2000/svg">
<path d="M19.0356 5.73804H5.03564C4.24 5.73804 3.47693 6.05411 2.91432 6.61672C2.35172 7.17933 2.03564 7.94239 2.03564 8.73804V16.738C2.03564 17.5337 2.35172 18.2967 2.91432 18.8594C3.47693 19.422 4.24 19.738 5.03564 19.738H19.0356C19.8313 19.738 20.5944 19.422 21.157 18.8594C21.7196 18.2967 22.0356 17.5337 22.0356 16.738V8.73804C22.0356 7.94239 21.7196 7.17933 21.157 6.61672C20.5944 6.05411 19.8313 5.73804 19.0356 5.73804ZM4.03564 8.73804C4.03564 8.47282 4.141 8.21847 4.32854 8.03093C4.51607 7.84339 4.77043 7.73804 5.03564 7.73804H19.0356C19.3009 7.73804 19.5552 7.84339 19.7428 8.03093C19.9303 8.21847 20.0356 8.47282 20.0356 8.73804V9.73804H4.03564V8.73804ZM20.0356 16.738C20.0356 17.0033 19.9303 17.2576 19.7428 17.4451C19.5552 17.6327 19.3009 17.738 19.0356 17.738H5.03564C4.77043 17.738 4.51607 17.6327 4.32854 17.4451C4.141 17.2576 4.03564 17.0033 4.03564 16.738V11.738H20.0356V16.738Z" fill="black"/>
<path d="M7.03564 15.738H11.0356C11.3009 15.738 11.5552 15.6327 11.7428 15.4451C11.9303 15.2576 12.0356 15.0033 12.0356 14.738C12.0356 14.4728 11.9303 14.2185 11.7428 14.0309C11.5552 13.8434 11.3009 13.738 11.0356 13.738H7.03564C6.77043 13.738 6.51607 13.8434 6.32854 14.0309C6.141 14.2185 6.03564 14.4728 6.03564 14.738C6.03564 15.0033 6.141 15.2576 6.32854 15.4451C6.51607 15.6327 6.77043 15.738 7.03564 15.738ZM15.0356 15.738H17.0356C17.3009 15.738 17.5552 15.6327 17.7428 15.4451C17.9303 15.2576 18.0356 15.0033 18.0356 14.738C18.0356 14.4728 17.9303 14.2185 17.7428 14.0309C17.5552 13.8434 17.3009 13.738 17.0356 13.738H15.0356C14.7704 13.738 14.5161 13.8434 14.3285 14.0309C14.141 14.2185 14.0356 14.4728 14.0356 14.738C14.0356 15.0033 14.141 15.2576 14.3285 15.4451C14.5161 15.6327 14.7704 15.738 15.0356 15.738Z" fill="black"/>
</svg>
