<svg width="18" height="18" viewBox="0 0 18 18" fill="none" xmlns="http://www.w3.org/2000/svg">
<path fill-rule="evenodd" clip-rule="evenodd" d="M12.4057 6.36375C12.4057 7.19131 12.077 7.98498 11.4918 8.57016C10.9066 9.15534 10.1129 9.48409 9.28538 9.48409C8.45781 9.48409 7.66414 9.15534 7.07897 8.57016C6.49379 7.98498 6.16504 7.19131 6.16504 6.36375C6.16504 5.53618 6.49379 4.74251 7.07897 4.15733C7.66414 3.57216 8.45781 3.24341 9.28538 3.24341C10.1129 3.24341 10.9066 3.57216 11.4918 4.15733C12.077 4.74251 12.4057 5.53618 12.4057 6.36375ZM10.8455 6.36375C10.8455 6.77753 10.6812 7.17437 10.3886 7.46695C10.096 7.75954 9.69916 7.92392 9.28538 7.92392C8.8716 7.92392 8.47476 7.75954 8.18217 7.46695C7.88958 7.17437 7.72521 6.77753 7.72521 6.36375C7.72521 5.94996 7.88958 5.55313 8.18217 5.26054C8.47476 4.96795 8.8716 4.80358 9.28538 4.80358C9.69916 4.80358 10.096 4.96795 10.3886 5.26054C10.6812 5.55313 10.8455 5.94996 10.8455 6.36375Z" fill="black"/>
<path fill-rule="evenodd" clip-rule="evenodd" d="M9.28552 0.123047C4.54651 0.123047 0.70459 3.96496 0.70459 8.70398C0.70459 13.443 4.54651 17.2849 9.28552 17.2849C14.0245 17.2849 17.8665 13.443 17.8665 8.70398C17.8665 3.96496 14.0245 0.123047 9.28552 0.123047ZM2.26476 8.70398C2.26476 10.3344 2.82096 11.8352 3.75316 13.0272C4.40783 12.1675 5.25241 11.4707 6.22091 10.9914C7.18941 10.5121 8.25561 10.2632 9.33623 10.2641C10.4029 10.2631 11.4557 10.5056 12.4144 10.9731C13.3731 11.4405 14.2125 12.1207 14.8686 12.9617C15.5445 12.0752 15.9996 11.0405 16.1962 9.94321C16.3928 8.84593 16.3253 7.71759 15.9993 6.65156C15.6733 5.58554 15.0981 4.61247 14.3213 3.81288C13.5446 3.01328 12.5886 2.41015 11.5325 2.05337C10.4763 1.6966 9.35042 1.59645 8.2479 1.7612C7.14538 1.92596 6.09793 2.35088 5.19224 3.00082C4.28654 3.65076 3.54863 4.50702 3.03956 5.49876C2.53049 6.49051 2.2649 7.58921 2.26476 8.70398ZM9.28552 15.7247C7.67383 15.7272 6.11079 15.1727 4.86088 14.1552C5.36398 13.435 6.03361 12.8469 6.8128 12.4411C7.592 12.0353 8.45769 11.8237 9.33623 11.8243C10.2038 11.8236 11.059 12.0299 11.8309 12.4261C12.6027 12.8223 13.2689 13.3969 13.7741 14.1022C12.5145 15.1527 10.9257 15.727 9.28552 15.7247Z" fill="black"/>
</svg>
