<svg width="58" height="58" viewBox="0 0 58 58" fill="none" xmlns="http://www.w3.org/2000/svg">
<circle cx="29" cy="29" r="27" fill="white" stroke="#27AE60" stroke-width="4"/>
<path d="M42.3688 20.52L42.3955 20.4933L35.7733 13.8889L33.8888 15.7733L37.6399 19.5244C35.9688 20.1644 34.7777 21.7733 34.7777 23.6667C34.7777 26.12 36.7687 28.1111 39.2221 28.1111C39.8532 28.1111 40.4577 27.9777 40.9998 27.7378V40.5555C40.9999 41.5333 40.1999 42.3333 39.2222 42.3333C38.2444 42.3333 37.4444 41.5333 37.4444 40.5556V32.5556C37.4444 30.5912 35.8533 29 33.8888 29H32.1111V16.5556C32.111 14.5911 30.5199 13 28.5555 13H17.8888C15.9243 13 14.3333 14.5911 14.3333 16.5556V45H32.111V31.6667H34.7777V40.5556C34.7777 43.0089 36.7687 45 39.2221 45C41.6754 45 43.6665 43.0089 43.6665 40.5556V23.6667C43.6666 22.44 43.1688 21.3289 42.3688 20.52ZM28.5555 25.4444H17.8888V16.5556H28.5555V25.4444ZM39.2222 25.4444C38.2444 25.4444 37.4444 24.6444 37.4444 23.6667C37.4444 22.6889 38.2444 21.8889 39.2222 21.8889C40.1999 21.8889 40.9999 22.6889 40.9999 23.6667C40.9999 24.6444 40.1999 25.4444 39.2222 25.4444Z" fill="#6D778B"/>
</svg>
