<svg width="58" height="58" viewBox="0 0 58 58" fill="none" xmlns="http://www.w3.org/2000/svg">
<circle cx="29" cy="29" r="27" fill="white" stroke="#EB5757" stroke-width="4"/>
<path d="M44.5221 27.9513L22.8586 17.1485C22.4321 16.936 21.9139 17.1092 21.7012 17.5358L17.0795 26.8037C16.9774 27.0085 16.9608 27.2456 17.0334 27.4626C17.106 27.6797 17.2618 27.859 17.4668 27.9611L23.9349 31.1864L23.361 32.3373C23.1484 32.7639 23.3217 33.282 23.7483 33.4947L23.9522 33.5965L22.8377 35.5812H16.2664C15.6553 34.3993 14.4225 33.5907 13 33.5907V40.9422C14.3896 40.9422 15.5988 40.1709 16.2236 39.0332H23.8481C24.4721 39.0332 25.0475 38.6965 25.3531 38.1524L27.0453 35.139L27.3395 35.2856C27.766 35.4983 28.2843 35.3249 28.497 34.8985L29.0709 33.7476L33.9036 36.1577C34.1823 36.2967 34.5143 36.2748 34.7723 36.1001L36.1061 35.1979L38.4875 36.3854C38.6084 36.4458 38.7402 36.4762 38.8726 36.4762C38.9649 36.4762 39.0573 36.4612 39.1464 36.4315C39.3635 36.359 39.5428 36.203 39.645 35.9983L42.0831 31.1088L44.6115 29.4446C44.8694 29.2749 45.0169 28.9803 44.9984 28.6722C44.9799 28.3639 44.7983 28.0892 44.5221 27.9513Z" fill="#6D778B"/>
<line x1="46.7857" y1="46.6142" x2="10.7857" y2="10.6142" stroke="#EB5757" stroke-width="4"/>
</svg>
