<svg width="58" height="58" viewBox="0 0 58 58" fill="none" xmlns="http://www.w3.org/2000/svg">
<circle cx="29" cy="29" r="27" fill="white" stroke="#EB5757" stroke-width="4"/>
<path d="M20.4236 26.703V30H8.97863V27.396L14.4806 22.251C15.0126 21.747 15.3696 21.32 15.5516 20.97C15.7336 20.606 15.8246 20.242 15.8246 19.878C15.8246 19.402 15.6636 19.031 15.3416 18.765C15.0196 18.499 14.5506 18.366 13.9346 18.366C13.3886 18.366 12.8846 18.492 12.4226 18.744C11.9746 18.982 11.6036 19.332 11.3096 19.794L8.22263 18.072C8.79663 17.12 9.60163 16.371 10.6376 15.825C11.6736 15.279 12.8986 15.006 14.3126 15.006C15.4326 15.006 16.4196 15.188 17.2736 15.552C18.1416 15.916 18.8136 16.441 19.2896 17.127C19.7796 17.799 20.0246 18.583 20.0246 19.479C20.0246 20.277 19.8496 21.033 19.4996 21.747C19.1636 22.447 18.5056 23.245 17.5256 24.141L14.7536 26.703H20.4236ZM28.1024 30.294C26.8424 30.294 25.7224 29.993 24.7424 29.391C23.7624 28.789 22.9924 27.914 22.4324 26.766C21.8864 25.604 21.6134 24.232 21.6134 22.65C21.6134 21.068 21.8864 19.703 22.4324 18.555C22.9924 17.393 23.7624 16.511 24.7424 15.909C25.7224 15.307 26.8424 15.006 28.1024 15.006C29.3484 15.006 30.4614 15.307 31.4414 15.909C32.4214 16.511 33.1844 17.393 33.7304 18.555C34.2904 19.703 34.5704 21.068 34.5704 22.65C34.5704 24.232 34.2904 25.604 33.7304 26.766C33.1844 27.914 32.4214 28.789 31.4414 29.391C30.4614 29.993 29.3484 30.294 28.1024 30.294ZM28.1024 26.892C28.8024 26.892 29.3554 26.556 29.7614 25.884C30.1814 25.198 30.3914 24.12 30.3914 22.65C30.3914 21.18 30.1814 20.109 29.7614 19.437C29.3554 18.751 28.8024 18.408 28.1024 18.408C27.3884 18.408 26.8214 18.751 26.4014 19.437C25.9954 20.109 25.7924 21.18 25.7924 22.65C25.7924 24.12 25.9954 25.198 26.4014 25.884C26.8214 26.556 27.3884 26.892 28.1024 26.892ZM42.4784 30.294C41.2184 30.294 40.0984 29.993 39.1184 29.391C38.1384 28.789 37.3684 27.914 36.8084 26.766C36.2624 25.604 35.9894 24.232 35.9894 22.65C35.9894 21.068 36.2624 19.703 36.8084 18.555C37.3684 17.393 38.1384 16.511 39.1184 15.909C40.0984 15.307 41.2184 15.006 42.4784 15.006C43.7244 15.006 44.8374 15.307 45.8174 15.909C46.7974 16.511 47.5604 17.393 48.1064 18.555C48.6664 19.703 48.9464 21.068 48.9464 22.65C48.9464 24.232 48.6664 25.604 48.1064 26.766C47.5604 27.914 46.7974 28.789 45.8174 29.391C44.8374 29.993 43.7244 30.294 42.4784 30.294ZM42.4784 26.892C43.1784 26.892 43.7314 26.556 44.1374 25.884C44.5574 25.198 44.7674 24.12 44.7674 22.65C44.7674 21.18 44.5574 20.109 44.1374 19.437C43.7314 18.751 43.1784 18.408 42.4784 18.408C41.7644 18.408 41.1974 18.751 40.7774 19.437C40.3714 20.109 40.1684 21.18 40.1684 22.65C40.1684 24.12 40.3714 25.198 40.7774 25.884C41.1974 26.556 41.7644 26.892 42.4784 26.892ZM22.2815 39.052H20.7135V43H18.4595V33.2H20.7135V37.162H22.3375L24.9135 33.2H27.3075L24.1015 37.932L27.4055 43H24.8295L22.2815 39.052ZM37.386 43L37.372 37.134L34.488 41.964H33.48L30.596 37.246V43H28.468V33.2H30.344L34.012 39.29L37.624 33.2H39.5L39.514 43H37.386Z" fill="#6D778B"/>
<line x1="47.5858" y1="46.6142" x2="11.5858" y2="10.6142" stroke="#EB5757" stroke-width="4"/>
</svg>
