<svg width="24" height="24" viewBox="0 0 24 24" fill="none" xmlns="http://www.w3.org/2000/svg">
<path d="M19.2589 19.2234C19.1816 19.2079 19.1031 19.2001 19.0243 19.2H18.9123L19.6323 16.3268C19.881 15.3343 19.9457 14.3046 19.8231 13.2888L19.0507 6.8664C18.8819 5.45915 17.6881 4.40005 16.2707 4.4H15.1908C15.455 4.0557 15.5988 3.63405 15.5999 3.2V2C15.5986 0.896 14.7039 0.0013 13.6 0H10.4C9.29596 0.0013 8.40126 0.896 8.39996 2V3.2C8.40141 3.6342 8.54566 4.05585 8.81036 4.4H7.73036C6.31301 4.40005 5.11921 5.45915 4.95036 6.8664L4.17836 13.2888C4.05581 14.3046 4.12046 15.3343 4.36916 16.3268L5.08756 19.2H4.97556C4.31281 19.2006 3.77601 19.7383 3.77661 20.4011C3.77666 20.4798 3.78451 20.5584 3.79996 20.6356L4.27996 23.0356C4.39321 23.5956 4.88466 23.9986 5.45596 24H18.5439C19.1152 23.9986 19.6067 23.5956 19.7199 23.0356L20.1999 20.6356C20.33 19.9858 19.9087 19.3535 19.2589 19.2234ZM16.3999 5.212C17.3587 5.27225 18.1387 6.0066 18.2567 6.96L19.0271 13.384C19.1382 14.3033 19.0797 15.2351 18.8543 16.1332H18.8531L18.0875 19.2H16.3999V5.212ZM9.19996 2C9.19996 1.33725 9.73721 0.8 10.4 0.8H13.6C14.2627 0.8 14.7999 1.33725 14.7999 2V3.2C14.7999 3.86275 14.2627 4.4 13.6 4.4H10.4C9.73721 4.4 9.19996 3.86275 9.19996 3.2V2ZM8.39996 5.2H15.5999V6.4H8.39996V5.2ZM8.39996 7.2H15.5999V8.8H8.39996V7.2ZM11.4344 13.2L10.8 13.8344L10.1656 13.2L10.8 12.5656L11.4344 13.2ZM11.3656 12L12 11.3656L12.6344 12L12 12.6344L11.3656 12ZM12 13.7656L12.6344 14.4L12 15.0344L11.3656 14.4L12 13.7656ZM12.5656 13.2L13.2 12.5656L13.8344 13.2L13.2 13.8344L12.5656 13.2ZM14.4 13.7656L15.0344 14.4L14.4 15.0344L13.7656 14.4L14.4 13.7656ZM13.7656 12L14.4 11.3656L15.0344 12L14.4 12.6344L13.7656 12ZM13.7656 9.6H15.0344L14.4 10.2344L13.7656 9.6ZM13.8344 10.8L13.2 11.4344L12.5656 10.8L13.2 10.1656L13.8344 10.8ZM12 10.2344L11.3656 9.6H12.6344L12 10.2344ZM11.4344 10.8L10.8 11.4344L10.1656 10.8L10.8 10.1656L11.4344 10.8ZM9.59996 10.2344L8.96556 9.6H10.2344L9.59996 10.2344ZM10.2344 12L9.59996 12.6344L8.96556 12L9.59996 11.3656L10.2344 12ZM10.2344 14.4L9.59996 15.0344L8.96556 14.4L9.59996 13.7656L10.2344 14.4ZM10.2344 16.8H8.96556L9.59996 16.1656L10.2344 16.8ZM10.1656 15.6L10.8 14.9656L11.4344 15.6L10.8 16.2344L10.1656 15.6ZM12 16.1656L12.6344 16.8H11.3656L12 16.1656ZM12.5656 15.6L13.2 14.9656L13.8344 15.6L13.2 16.2344L12.5656 15.6ZM14.4 16.1656L15.0344 16.8H13.7656L14.4 16.1656ZM14.9656 15.6L15.5999 14.9656V16.2344L14.9656 15.6ZM14.9656 13.2L15.5999 12.5656V13.8344L14.9656 13.2ZM14.9656 10.8L15.5999 10.1656V11.4344L14.9656 10.8ZM8.39996 10.1656L9.03436 10.8L8.39996 11.4344V10.1656ZM8.39996 12.5656L9.03436 13.2L8.39996 13.8344V12.5656ZM8.39996 14.9656L9.03436 15.6L8.39996 16.2344V14.9656ZM8.39996 17.6H15.5999V19.2H15.1999H8.39996V17.6ZM14.7999 20V21.6H9.19996V20H14.7999ZM4.97276 13.384L5.74316 6.96C5.86111 6.0066 6.64116 5.27225 7.59996 5.212V19.2H5.91236L5.14556 16.1332C4.92021 15.2351 4.86161 14.3033 4.97276 13.384ZM19.4163 20.4784L18.9363 22.8784C18.8983 23.0648 18.7342 23.1987 18.5439 23.1984H5.45596C5.26571 23.1987 5.10161 23.0648 5.06356 22.8784L4.58356 20.4784C4.53936 20.2619 4.67901 20.0506 4.89546 20.0065C4.92181 20.0011 4.94866 19.9984 4.97556 19.9984H8.39996V21.9984C8.39996 22.2193 8.57906 22.3984 8.79996 22.3984H15.1999C15.4208 22.3984 15.5999 22.2193 15.5999 21.9984V20H19.0243C19.144 20.0002 19.2573 20.0539 19.3331 20.1464C19.4092 20.239 19.4397 20.3608 19.4163 20.4784Z" fill="black"/>
</svg>
