<svg width="24" height="24" viewBox="0 0 24 24" fill="none" xmlns="http://www.w3.org/2000/svg">
<path d="M17.6006 21.0901C19.2162 21.0901 20.5305 19.7758 20.5305 18.1603V16.3201C20.9658 16.1731 21.2801 15.7611 21.2801 15.2768C21.2801 14.6696 20.7861 14.1756 20.1789 14.1756C19.5717 14.1756 19.0777 14.6696 19.0777 15.2768C19.0777 15.7611 19.3921 16.173 19.8273 16.3201V18.1603C19.8273 19.3881 18.8284 20.387 17.6006 20.387C16.3728 20.387 15.3739 19.3881 15.3739 18.1603V16.3201C15.8091 16.173 16.1235 15.7611 16.1235 15.2768C16.1235 14.6696 15.6295 14.1756 15.0223 14.1756C14.4151 14.1756 13.9211 14.6696 13.9211 15.2768C13.9211 15.7611 14.2355 16.173 14.6707 16.3201V18.1603C14.6707 19.7758 15.9851 21.0901 17.6006 21.0901ZM20.1789 14.8787C20.3984 14.8787 20.577 15.0573 20.577 15.2768C20.577 15.4962 20.3984 15.6748 20.1789 15.6748C19.9594 15.6748 19.7809 15.4962 19.7809 15.2768C19.7809 15.0573 19.9594 14.8787 20.1789 14.8787ZM15.0223 14.8787C15.2418 14.8787 15.4203 15.0573 15.4203 15.2768C15.4203 15.4962 15.2417 15.6748 15.0223 15.6748C14.8029 15.6748 14.6243 15.4962 14.6243 15.2768C14.6243 15.0573 14.8029 14.8787 15.0223 14.8787Z" fill="black"/>
<path d="M1.73849 24H22.5838C23.1217 24 23.5409 23.532 23.4823 22.9976L23.0718 19.2521C23.0507 19.059 22.8775 18.92 22.6841 18.9409C22.4911 18.9621 22.3518 19.1357 22.3729 19.3286L22.7834 23.0741C22.7963 23.193 22.7034 23.2968 22.5838 23.2968H12.6178H12.6173C12.4986 23.2968 12.4046 23.194 12.4177 23.0741L13.4317 13.8221C13.4428 13.7202 13.5286 13.6433 13.6313 13.6433H21.5699C21.6725 13.6433 21.7583 13.7202 21.7695 13.8221L22.1931 17.688C22.2143 17.881 22.3867 18.0202 22.5809 17.9992C22.7739 17.978 22.9132 17.8044 22.8921 17.6114L22.4684 13.7456C22.4181 13.2864 22.0318 12.9402 21.5699 12.9402H17.6804L17.1375 7.98583C17.0692 7.3628 16.5451 6.893 15.9184 6.893H14.5196V4.88825C14.5196 2.19287 12.3268 0 9.6314 0C6.93602 0 4.74316 2.19287 4.74316 4.88825V6.893H3.34447C2.71768 6.893 2.19356 7.3628 2.12531 7.98583L0.519379 22.64C0.439924 23.3654 1.00905 24 1.73849 24ZM1.21835 22.7165L2.82428 8.06242C2.85344 7.79664 3.07708 7.59615 3.34451 7.59615H4.7432V8.9053C4.28391 9.054 3.95076 9.48563 3.95076 9.99382C3.95076 10.6246 4.46396 11.1378 5.09477 11.1378C5.72559 11.1378 6.23879 10.6246 6.23879 9.99382C6.23879 9.48563 5.90564 9.054 5.44635 8.9053V7.59615H8.81112C9.00532 7.59615 9.16269 7.43874 9.16269 7.24457C9.16269 7.05041 9.00532 6.893 8.81112 6.893H5.44635V4.88825C5.44635 2.58058 7.32378 0.703143 9.63145 0.703143C11.9391 0.703143 13.8166 2.58058 13.8166 4.88825V6.893H10.4518C10.2576 6.893 10.1002 7.05041 10.1002 7.24457C10.1002 7.43874 10.2576 7.59615 10.4518 7.59615H13.8166V8.9053C13.3573 9.054 13.0242 9.48563 13.0242 9.99382C13.0242 10.6246 13.5373 11.1378 14.1681 11.1378C14.7989 11.1378 15.3121 10.6246 15.3121 9.99382C15.3121 9.48563 14.979 9.054 14.5197 8.9053V7.59615H15.9184C16.1858 7.59615 16.4095 7.79659 16.4386 8.06242L16.9731 12.9402H13.6313C13.1693 12.9402 12.783 13.2864 12.7328 13.7456L11.7188 22.9976C11.7078 23.0983 11.7167 23.2115 11.7361 23.2969H1.73849C1.42676 23.2968 1.18436 23.0271 1.21835 22.7165ZM5.09473 9.55295C5.33787 9.55295 5.5356 9.75072 5.5356 9.99382C5.5356 10.2369 5.33783 10.4347 5.09473 10.4347C4.85163 10.4347 4.65386 10.2369 4.65386 9.99382C4.65386 9.75072 4.85158 9.55295 5.09473 9.55295ZM14.1681 9.55295C14.4112 9.55295 14.6089 9.75072 14.6089 9.99382C14.6089 10.2369 14.4112 10.4347 14.1681 10.4347C13.925 10.4347 13.7273 10.2369 13.7273 9.99382C13.7273 9.75072 13.925 9.55295 14.1681 9.55295Z" fill="black"/>
</svg>
