<svg width="24" height="24" viewBox="0 0 24 24" fill="none" xmlns="http://www.w3.org/2000/svg">
<path d="M17.1999 12.4C17.1999 10.8536 15.9463 9.60001 14.3999 9.60001H9.59994C9.37901 9.60001 9.19995 9.77911 9.19995 9.99999C9.19995 10.2209 9.37901 10.4 9.59994 10.4H14.3999C15.5045 10.4 16.4 11.2954 16.4 12.4C16.4 13.5046 15.5045 14.4 14.3999 14.4C13.2954 14.4 12.3999 13.5046 12.3999 12.4C12.3999 12.1791 12.2209 12 11.9999 12C11.779 12 11.6 12.1791 11.6 12.4C11.6 13.9464 12.8536 15.2 14.3999 15.2C15.9463 15.2 17.1999 13.9464 17.1999 12.4Z" fill="black"/>
<path d="M20.7999 8.00002H9.59994C9.37901 8.00002 9.19995 8.17908 9.19995 8.4C9.19995 8.62092 9.37901 8.79998 9.59994 8.79998H20.7999C21.9045 8.79998 22.7999 9.69544 22.7999 10.8C22.7999 11.9046 21.9045 12.8 20.7999 12.8C19.6954 12.8 18.7999 11.9046 18.7999 10.8C18.7999 10.5791 18.6208 10.4 18.3999 10.4C18.179 10.4 17.9999 10.5791 17.9999 10.8C17.9999 12.3464 19.2536 13.6 20.7999 13.6C22.3463 13.6 23.5999 12.3464 23.5999 10.8C23.5999 9.25364 22.3463 8.00002 20.7999 8.00002Z" fill="black"/>
<path d="M9.59994 5.60002H14.3999C15.9463 5.60002 17.1999 4.34639 17.1999 2.80003C17.1999 1.25367 15.9463 0 14.3999 0C12.8535 0 11.6 1.25363 11.6 2.79998C11.6 3.02091 11.779 3.19997 11.9999 3.19997C12.2209 3.19997 12.3999 3.02091 12.3999 2.79998C12.3999 1.69542 13.2954 0.799969 14.3999 0.799969C15.5045 0.799969 16.4 1.69542 16.4 2.79998C16.4 3.90455 15.5045 4.8 14.3999 4.8H9.59994C9.37901 4.8 9.19995 4.97906 9.19995 5.19998C9.19995 5.42091 9.37901 5.60002 9.59994 5.60002Z" fill="black"/>
<path d="M9.59994 7.2H20.7999C22.3463 7.2 23.5999 5.94638 23.5999 4.40002C23.5999 2.85366 22.3463 1.60004 20.7999 1.60004C19.2543 1.60177 18.0017 2.85432 17.9999 4.40002C17.9999 4.62094 18.179 4.8 18.3999 4.8C18.6208 4.8 18.7999 4.62089 18.7999 4.40002C18.7999 3.29546 19.6954 2.4 20.7999 2.4C21.9045 2.4 22.7999 3.29541 22.7999 4.40002C22.7999 5.50458 21.9045 6.40003 20.7999 6.40003H9.59994C9.37901 6.40003 9.19995 6.5791 9.19995 6.80002C9.19995 7.02094 9.37901 7.2 9.59994 7.2Z" fill="black"/>
<path d="M2.7998 1.2V22.8V23.2H3.59982V0.800018H2.7998V1.2Z" fill="black"/>
<path d="M0.399902 2.00002V22C0.399902 22.221 0.578965 22.4 0.799887 22.4H1.99989V1.59999H0.799887C0.579012 1.59999 0.399902 1.7791 0.399902 2.00002Z" fill="black"/>
<path d="M4.3999 15.5636V16.8324L6.03509 18.4676C6.1632 18.5957 6.3559 18.6341 6.52334 18.5647C6.69073 18.4954 6.7999 18.332 6.7999 18.1508C6.80084 18.0308 6.75359 17.9155 6.6687 17.8307L4.3999 15.5636Z" fill="black"/>
<path d="M4.3999 10.9644V12.2332L6.0351 13.868C6.16321 13.9962 6.35591 14.0345 6.52335 13.9651C6.69074 13.8958 6.79991 13.7324 6.79991 13.5512C6.80094 13.4312 6.75364 13.3159 6.66871 13.2312L4.3999 10.9644Z" fill="black"/>
<path d="M4.3999 6.36478V7.63359L6.03509 9.26877C6.21041 9.44375 6.49433 9.44347 6.66931 9.26816C6.8443 9.09285 6.84402 8.80893 6.6687 8.63394L4.3999 6.36478Z" fill="black"/>
<path d="M6.52348 4.76681C6.66176 4.70911 6.76222 4.5863 6.79132 4.43934C6.82048 4.29234 6.77445 4.14052 6.66865 4.03444L4.3999 1.76559V3.03441L6.03509 4.66959C6.16212 4.79986 6.35623 4.83849 6.52348 4.76681Z" fill="black"/>
<path d="M4.3999 20.1632V21.432L6.03509 23.0668C6.16319 23.195 6.3559 23.2333 6.52333 23.1639C6.69072 23.0946 6.7999 22.9312 6.7999 22.75C6.80032 22.6302 6.75311 22.5151 6.66869 22.43L4.3999 20.1632Z" fill="black"/>
<path d="M23.4642 17.5999C23.4643 17.4569 23.388 17.3248 23.2642 17.2533C23.1404 17.1817 22.9879 17.1817 22.864 17.2532L22.5176 17.4532L22.3176 17.1072C22.2467 16.9824 22.1143 16.9052 21.9708 16.9049C21.8272 16.9046 21.6945 16.9812 21.6231 17.1057C21.5516 17.2301 21.5522 17.3834 21.6248 17.5072L21.8249 17.8532L20.0001 18.9068V16.8H20.4C20.621 16.8 20.8 16.6209 20.8 16.4C20.8 16.1791 20.621 16 20.4 16H20.0001V15.6C20.0001 15.3791 19.821 15.2 19.6001 15.2C19.3791 15.2 19.2001 15.3791 19.2001 15.6V16H18.8001C18.5792 16 18.4001 16.179 18.4001 16.4C18.4001 16.6209 18.5792 16.7999 18.8001 16.7999H19.2001V18.9067L17.3753 17.8531L17.5753 17.5072C17.6286 17.4152 17.6431 17.3058 17.6157 17.2032C17.5882 17.1005 17.521 17.013 17.4289 16.9599C17.337 16.9069 17.2278 16.8926 17.1253 16.9201C17.0228 16.9477 16.9355 17.0148 16.8825 17.1067L16.6825 17.4527L16.3361 17.2527C16.1446 17.1423 15.8999 17.2079 15.7895 17.3993C15.679 17.5908 15.7446 17.8355 15.9361 17.9459L16.2825 18.146L16.0825 18.4924C16.0099 18.6162 16.0092 18.7694 16.0807 18.8939C16.1522 19.0184 16.2849 19.095 16.4284 19.0947C16.5719 19.0943 16.7043 19.0171 16.7752 18.8924L16.9753 18.5459L18.8001 19.5999L16.9753 20.6531L16.7752 20.3071C16.7043 20.1824 16.5719 20.1052 16.4284 20.1048C16.2849 20.1045 16.1522 20.1811 16.0807 20.3056C16.0092 20.43 16.0099 20.5833 16.0825 20.7071L16.2825 21.0535L15.9361 21.2535C15.8122 21.325 15.736 21.4571 15.7359 21.6C15.7359 21.743 15.8121 21.8752 15.9359 21.9466C16.0597 22.0182 16.2123 22.0182 16.3361 21.9467L16.6825 21.7467L16.8825 22.0931C16.9937 22.2828 17.2372 22.3472 17.4276 22.2372C17.618 22.1273 17.684 21.8842 17.5753 21.6931L17.3753 21.3467L19.2001 20.2927V22.3999H18.8001C18.5792 22.3999 18.4001 22.579 18.4001 22.7999C18.4001 23.0208 18.5792 23.1999 18.8001 23.1999H19.2001V23.5999C19.2001 23.8208 19.3791 23.9999 19.6001 23.9999C19.821 23.9999 20.0001 23.8208 20.0001 23.5999V23.1999H20.4C20.621 23.1999 20.8 23.0208 20.8 22.7999C20.8 22.579 20.621 22.3999 20.4 22.3999H20.0001V20.2927L21.8249 21.3463L21.6248 21.6927C21.5522 21.8166 21.5516 21.9698 21.6231 22.0942C21.6945 22.2187 21.8272 22.2953 21.9708 22.295C22.1143 22.2947 22.2467 22.2175 22.3176 22.0927L22.5176 21.7463L22.864 21.9463C23.0555 22.0567 23.3001 21.9911 23.4106 21.7997C23.5211 21.6083 23.4554 21.3636 23.2641 21.2531L22.9176 21.0531L23.1177 20.7067C23.1903 20.5829 23.1909 20.4296 23.1194 20.3052C23.048 20.1807 22.9153 20.1041 22.7717 20.1044C22.6282 20.1047 22.4958 20.1819 22.4249 20.3067L22.2249 20.6527L20.4001 19.5999L22.2249 18.5463L22.4249 18.8927C22.4958 19.0175 22.6282 19.0947 22.7717 19.095C22.9153 19.0953 23.048 19.0187 23.1194 18.8942C23.1909 18.7698 23.1903 18.6165 23.1177 18.4927L22.9176 18.1463L23.2641 17.9463C23.3879 17.8749 23.4642 17.7428 23.4642 17.5999Z" fill="black"/>
</svg>
