<svg width="24" height="24" viewBox="0 0 24 24" fill="none" xmlns="http://www.w3.org/2000/svg">
<g clip-path="url(#clip0)">
<path d="M21.8145 9.6488L13.9233 1.7576C12.8005 0.628451 11.2725 -0.00449906 9.6801 9.43441e-07H3.6001C2.4961 0.00135094 1.60145 0.896001 1.6001 2V23.6C1.6001 23.8209 1.7792 24 2.0001 24H13.7753C14.7999 24 15.7426 23.4403 16.2333 22.5408C17.3172 20.5517 18.9517 18.9172 20.9409 17.8332C21.8404 17.3426 22.4 16.3998 22.4001 15.3752V11.0628C22.4016 10.5322 22.1907 10.023 21.8145 9.6488ZM21.6001 15.3752C21.6001 16.1072 21.2003 16.7808 20.5577 17.1312C18.4335 18.2882 16.6883 20.0335 15.5313 22.1576C15.1808 22.8003 14.5073 23.2001 13.7753 23.2H2.4001V2C2.4001 1.33725 2.93735 0.800001 3.6001 0.800001H9.6801C11.06 0.796251 12.3842 1.34475 13.3573 2.3232L21.2489 10.2144C21.473 10.44 21.5992 10.7448 21.6001 11.0628V15.3752Z" fill="black"/>
<path d="M19.8828 10.1172L12.6544 2.8888C11.8311 2.0609 10.7108 1.59685 9.54315 1.6H4.39995C3.7372 1.6 3.19995 2.13725 3.19995 2.8V10.4C3.19995 10.6209 3.37905 10.8 3.59995 10.8H19.6C19.7617 10.8 19.9076 10.7026 19.9696 10.5532C20.0315 10.4037 19.9972 10.2316 19.8828 10.1172ZM13.6 9.99999H3.99995V2.8C3.99995 2.5791 4.17905 2.4 4.39995 2.4H9.54315C10.4985 2.3974 11.4151 2.77705 12.0888 3.4544L13.6 4.9656V9.99999ZM14.4 9.99999V5.7656L18.6344 9.99999H14.4Z" fill="black"/>
<path d="M18.8 12H16.4C15.7372 12 15.2 12.5373 15.2 13.2C15.2 13.8628 15.7372 14.4 16.4 14.4H18.8C19.4627 14.4 20 13.8628 20 13.2C20 12.5373 19.4627 12 18.8 12ZM18.8 13.6H16.4C16.1791 13.6 16 13.4209 16 13.2C16 12.9791 16.1791 12.8 16.4 12.8H18.8C19.0209 12.8 19.2 12.9791 19.2 13.2C19.2 13.4209 19.0209 13.6 18.8 13.6Z" fill="black"/>
</g>
<defs>
<clipPath id="clip0">
<rect width="24" height="24" fill="white"/>
</clipPath>
</defs>
</svg>
