<svg width="24" height="24" viewBox="0 0 24 24" fill="none" xmlns="http://www.w3.org/2000/svg">
<g clip-path="url(#clip0)">
<path d="M13.6272 7.37038L14.4311 5.28089C15.5807 3.93916 15.425 1.9195 14.0832 0.769874C12.7415 -0.37975 10.7218 -0.224037 9.57222 1.11769C8.54581 2.3156 8.54581 4.08293 9.57222 5.28089L10.376 7.37079C5.82761 8.26587 2.86602 12.6787 3.76111 17.2271C4.53592 21.1642 7.989 24.0023 12.0016 24C16.6375 24.0015 20.3969 20.2447 20.3984 15.6088C20.3998 11.5975 17.5629 8.1459 13.6272 7.37038ZM9.60221 3.20499C9.60351 1.88036 10.677 0.806865 12.0016 0.805565C13.3268 0.805565 14.4011 1.87981 14.4011 3.20499C14.4011 4.53017 13.3268 5.60441 12.0016 5.60441C10.6765 5.60441 9.60221 4.53017 9.60221 3.20499ZM14.0012 16.4018C13.3386 16.4018 12.8014 16.9389 12.8014 17.6015V18.8012C12.8014 19.243 12.4434 19.601 12.0016 19.601C11.5599 19.601 11.2018 19.243 11.2018 18.8012V17.6015C11.2018 16.9389 10.6647 16.4018 10.0021 16.4018C9.33952 16.4018 8.8024 16.9389 8.8024 17.6015V18.8012C8.8024 19.243 8.44434 19.601 8.00259 19.601C7.56085 19.601 7.20278 19.243 7.20278 18.8012V12.8027C7.20278 12.3609 7.56085 12.0029 8.00259 12.0029C8.44434 12.0029 8.8024 12.3609 8.8024 12.8027V14.0024C8.8024 14.665 9.33952 15.2021 10.0021 15.2021C10.6647 15.2021 11.2018 14.665 11.2018 14.0024V13.6905C11.6539 14.1064 12.3494 14.1064 12.8014 13.6905V14.0024C12.8014 14.665 13.3386 15.2021 14.0012 15.2021C14.6637 15.2021 15.2009 14.665 15.2009 14.0024V12.8027C15.2009 12.3609 15.5589 12.0029 16.0007 12.0029C16.4424 12.0029 16.8005 12.3609 16.8005 12.8027V18.8012C16.8005 19.243 16.4424 19.601 16.0007 19.601C15.5589 19.601 15.2009 19.243 15.2009 18.8012V17.6015C15.2009 16.9389 14.6637 16.4018 14.0012 16.4018ZM12.4015 8.32935V12.8027C12.4015 13.0235 12.2225 13.2026 12.0016 13.2026C11.7808 13.2026 11.6017 13.0235 11.6017 12.8027V8.32935L10.7655 6.15548C11.5562 6.48715 12.447 6.48715 13.2377 6.15548L12.4015 8.32935ZM10.6668 23.0879C6.53564 22.3507 3.7843 18.4043 4.52143 14.2732C5.08054 11.1398 7.53335 8.68692 10.6668 8.1278V8.127L10.802 8.47812V11.7573C10.5469 12.0462 10.4049 12.4174 10.4021 12.8027V14.0024C10.4021 14.2232 10.223 14.4023 10.0022 14.4023C9.78132 14.4023 9.60226 14.2232 9.60226 14.0024V12.8027C9.60226 11.9192 8.88608 11.2031 8.00264 11.2031C7.1192 11.2031 6.40303 11.9192 6.40303 12.8027V18.8012C6.40303 19.6847 7.1192 20.4008 8.00264 20.4008C8.88608 20.4008 9.60226 19.6847 9.60226 18.8012V17.6015C9.60226 17.3807 9.78132 17.2016 10.0022 17.2016C10.223 17.2016 10.4021 17.3807 10.4021 17.6015V18.8012C10.4021 19.6847 11.1182 20.4008 12.0017 20.4008C12.8851 20.4008 13.6013 19.6847 13.6013 18.8012V17.6015C13.6013 17.3807 13.7804 17.2016 14.0012 17.2016C14.2221 17.2016 14.4011 17.3807 14.4011 17.6015V18.8012C14.4011 19.6847 15.1173 20.4008 16.0007 20.4008C16.8842 20.4008 17.6003 19.6847 17.6003 18.8012V12.8027C17.6003 11.9192 16.8842 11.2031 16.0007 11.2031C15.1173 11.2031 14.4011 11.9192 14.4011 12.8027V14.0024C14.4011 14.2232 14.2221 14.4023 14.0012 14.4023C13.7804 14.4023 13.6013 14.2232 13.6013 14.0024V12.8027C13.5984 12.4175 13.4563 12.0465 13.2014 11.7577V8.47852L13.3362 8.1278C17.4673 8.86493 20.2187 12.8114 19.4815 16.9425C18.7444 21.0736 14.7979 23.825 10.6668 23.0879Z" fill="black"/>
</g>
<defs>
<clipPath id="clip0">
<rect width="24" height="24" fill="white"/>
</clipPath>
</defs>
</svg>
