<svg width="24" height="24" viewBox="0 0 24 24" fill="none" xmlns="http://www.w3.org/2000/svg">
<path d="M8 12.1023C8 13.552 6.82475 14.7273 5.375 14.7273C3.92525 14.7273 2.75 13.552 2.75 12.1023C2.75 10.6525 3.92525 9.47727 5.375 9.47727C6.82475 9.47727 8 10.6525 8 12.1023Z" stroke="#6D778B" stroke-width="1.5" stroke-linecap="round" stroke-linejoin="round"/>
<path d="M21.5 6.375C21.5 7.82475 20.3247 9 18.875 9C17.4253 9 16.25 7.82475 16.25 6.375C16.25 4.92525 17.4253 3.75 18.875 3.75C20.3247 3.75 21.5 4.92525 21.5 6.375Z" stroke="#6D778B" stroke-width="1.5" stroke-linecap="round" stroke-linejoin="round"/>
<path d="M21.2955 17.625C21.2955 19.0967 20.1444 20.25 18.7727 20.25C17.4011 20.25 16.25 19.0967 16.25 17.625C16.25 16.1533 17.4011 15 18.7727 15C20.1444 15 21.2955 16.1533 21.2955 17.625Z" stroke="#6D778B" stroke-width="1.5" stroke-linecap="round" stroke-linejoin="round"/>
<path d="M8 11L16 8" stroke="#6D778B" stroke-width="1.5" stroke-linecap="round" stroke-linejoin="round"/>
<path d="M8.1875 12.5625L16.0625 16.5" stroke="#6D778B" stroke-width="1.5" stroke-linecap="round" stroke-linejoin="round"/>
</svg>
