<svg width="18" height="17" viewBox="0 0 18 17" fill="none" xmlns="http://www.w3.org/2000/svg">
<path d="M9.4375 1.33624C5.33027 1.33624 2 4.45551 2 8.30251C2 12.1495 5.33027 15.2688 9.4375 15.2688C13.5447 15.2688 16.875 12.1495 16.875 8.30251C16.875 4.45551 13.5447 1.33624 9.4375 1.33624ZM12.6499 6.02759L9.15361 10.5681C9.10475 10.632 9.04033 10.684 8.96569 10.72C8.89106 10.7559 8.80837 10.7746 8.72446 10.7746C8.64056 10.7746 8.55786 10.7559 8.48323 10.72C8.4086 10.684 8.34418 10.632 8.29531 10.5681L6.2251 7.88111C6.16201 7.7987 6.2251 7.68363 6.33301 7.68363H7.11162C7.28096 7.68363 7.44199 7.75983 7.5416 7.89045L8.72363 9.42676L11.3334 6.03692C11.433 5.90786 11.5924 5.83011 11.7634 5.83011H12.542C12.6499 5.83011 12.713 5.94518 12.6499 6.02759Z" fill="#1471C5"/>
</svg>
