<svg width="27" height="27" viewBox="0 0 27 27" fill="none" xmlns="http://www.w3.org/2000/svg">
<path d="M13.5045 2.9008C12.3912 2.9008 11.3234 3.33059 10.5362 4.09563C9.74892 4.86066 9.30664 5.89827 9.30664 6.9802C9.30664 10.0542 10.6142 13.8778 11.2707 15.6117C11.4404 16.054 11.7459 16.435 12.1459 16.7029C12.5459 16.9709 13.0209 17.1129 13.5067 17.1097C14.486 17.1097 15.3906 16.5391 15.7416 15.6169C16.3981 13.8904 17.7025 10.0858 17.7025 6.9802C17.7025 5.89827 17.2602 4.86066 16.4729 4.09563C15.6857 3.33059 14.6179 2.9008 13.5045 2.9008Z" fill="#1471C5"/>
<path d="M13.5058 18.6909C12.7872 18.6909 12.0981 18.9683 11.59 19.4621C11.0818 19.9558 10.7964 20.6255 10.7964 21.3238C10.7964 22.0221 11.0818 22.6918 11.59 23.1856C12.0981 23.6793 12.7872 23.9567 13.5058 23.9567C14.2244 23.9567 14.9136 23.6793 15.4217 23.1856C15.9298 22.6918 16.2153 22.0221 16.2153 21.3238C16.2153 20.6255 15.9298 19.9558 15.4217 19.4621C14.9136 18.9683 14.2244 18.6909 13.5058 18.6909Z" fill="#1471C5"/>
</svg>
