<svg width="29" height="29" viewBox="0 0 29 29" fill="none" xmlns="http://www.w3.org/2000/svg">
<path d="M25.915 7.34035L18.665 3.73282C18.4971 3.64922 18.312 3.6057 18.1242 3.6057C17.9365 3.6057 17.7514 3.64922 17.5835 3.73282L10.8748 7.07219L4.16496 3.73282C3.9807 3.64119 3.77595 3.59795 3.57017 3.60723C3.36439 3.6165 3.16441 3.67798 2.98922 3.78581C2.81403 3.89365 2.66945 4.04427 2.56921 4.22336C2.46898 4.40245 2.41641 4.60407 2.4165 4.80907V20.4417C2.4165 20.8975 2.67509 21.3135 3.08471 21.518L10.3347 25.1255C10.5026 25.2091 10.6877 25.2526 10.8754 25.2526C11.0632 25.2526 11.2483 25.2091 11.4162 25.1255L18.1248 21.7861L24.8347 25.1243C25.0185 25.2168 25.2231 25.2606 25.4288 25.2516C25.6345 25.2425 25.8344 25.1809 26.0092 25.0726C26.3657 24.8525 26.5832 24.4665 26.5832 24.0492V8.4166C26.5832 7.96085 26.3246 7.54478 25.915 7.34035ZM12.0832 9.15975L16.9165 6.75473V19.6986L12.0832 22.1036V9.15975ZM4.83317 6.75473L9.6665 9.15975V22.1036L4.83317 19.6986V6.75473ZM24.1665 22.1036L19.3332 19.6986V6.75473L24.1665 9.15975V22.1036Z" fill="#1471C5"/>
</svg>
