<svg width="28" height="28" viewBox="0 0 28 28" fill="none" xmlns="http://www.w3.org/2000/svg">
<path d="M13.5083 2.73059C7.30505 2.73059 2.2583 7.75302 2.2583 13.9264C2.2583 20.0997 7.30505 25.1222 13.5083 25.1222C19.7116 25.1222 24.7583 20.0997 24.7583 13.9264C24.7583 7.75302 19.7116 2.73059 13.5083 2.73059ZM13.5083 22.883C8.54593 22.883 4.5083 18.8648 4.5083 13.9264C4.5083 8.98792 8.54593 4.96975 13.5083 4.96975C18.4707 4.96975 22.5083 8.98792 22.5083 13.9264C22.5083 18.8648 18.4707 22.883 13.5083 22.883Z" fill="#1471C5"/>
<path d="M14.6333 8.32848H12.3833V14.3899L16.0879 18.0766L17.6787 16.4936L14.6333 13.4629V8.32848Z" fill="#1471C5"/>
</svg>
